<svg width="248" height="29" viewBox="0 0 248 29" fill="none" xmlns="http://www.w3.org/2000/svg">
<path d="M0.144 7.236V1.8H20.088V7.236H13.14V27H7.056V7.236H0.144ZM26.8757 7.02V1.8H38.1437V7.02H26.8757ZM26.8757 16.884V11.988H37.7837V16.884H26.8757ZM22.8437 1.8H28.6757V27H22.8437V1.8ZM42.7421 1.8H48.8261V21.78H58.9421V27H42.7421V1.8ZM65.6758 14.4C65.6758 15.888 65.9638 17.208 66.5398 18.36C67.1398 19.488 67.9678 20.376 69.0238 21.024C70.1038 21.672 71.3638 21.996 72.8038 21.996C74.2198 21.996 75.4558 21.672 76.5118 21.024C77.5918 20.376 78.4198 19.488 78.9958 18.36C79.5958 17.208 79.8958 15.888 79.8958 14.4C79.8958 12.912 79.6078 11.604 79.0318 10.476C78.4558 9.324 77.6398 8.424 76.5838 7.776C75.5278 7.128 74.2678 6.804 72.8038 6.804C71.3638 6.804 70.1038 7.128 69.0238 7.776C67.9678 8.424 67.1398 9.324 66.5398 10.476C65.9638 11.604 65.6758 12.912 65.6758 14.4ZM59.2318 14.4C59.2318 12.456 59.5678 10.68 60.2398 9.072C60.9358 7.464 61.8958 6.072 63.1198 4.896C64.3438 3.72 65.7838 2.82 67.4398 2.196C69.0958 1.548 70.8838 1.224 72.8038 1.224C74.7478 1.224 76.5358 1.548 78.1678 2.196C79.8238 2.82 81.2638 3.72 82.4878 4.896C83.7118 6.072 84.6598 7.464 85.3318 9.072C86.0038 10.68 86.3398 12.456 86.3398 14.4C86.3398 16.344 86.0038 18.132 85.3318 19.764C84.6838 21.396 83.7478 22.812 82.5238 24.012C81.3238 25.212 79.8958 26.148 78.2398 26.82C76.5838 27.468 74.7718 27.792 72.8038 27.792C70.8118 27.792 68.9878 27.468 67.3318 26.82C65.6758 26.148 64.2358 25.212 63.0118 24.012C61.8118 22.812 60.8758 21.396 60.2038 19.764C59.5558 18.132 59.2318 16.344 59.2318 14.4ZM96.5382 15.588H102.838L110.722 27H103.594L96.5382 15.588ZM90.2382 1.8H96.3222V27H90.2382V1.8ZM94.0542 6.948V1.8H99.4182C101.578 1.8 103.378 2.148 104.818 2.844C106.258 3.54 107.35 4.512 108.094 5.76C108.838 6.984 109.21 8.412 109.21 10.044C109.21 11.652 108.838 13.08 108.094 14.328C107.35 15.552 106.258 16.512 104.818 17.208C103.378 17.904 101.578 18.252 99.4182 18.252H94.0542V13.536H98.9862C99.8022 13.536 100.498 13.416 101.074 13.176C101.674 12.912 102.13 12.54 102.442 12.06C102.754 11.556 102.91 10.956 102.91 10.26C102.91 9.564 102.754 8.976 102.442 8.496C102.13 7.992 101.674 7.608 101.074 7.344C100.498 7.08 99.8022 6.948 98.9862 6.948H94.0542ZM117.579 27V21.996H130.287V27H117.579ZM117.579 6.804V1.8H130.287V6.804H117.579ZM117.579 16.2V11.304H129.567V16.2H117.579ZM113.547 1.8H119.379V27H113.547V1.8ZM152.626 1.8H158.494V28.26L141.07 12.816V27H135.238V0.539999L152.626 15.984V1.8ZM161.3 7.236V1.8H181.244V7.236H174.296V27H168.212V7.236H161.3ZM184 1.8H190.192V27H184V1.8ZM212.919 1.8H218.787V28.26L201.363 12.816V27H195.531V0.539999L212.919 15.984V1.8ZM228.073 22.14L228.505 17.496H240.997L241.393 22.14H228.073ZM234.661 11.052L231.133 19.188L231.421 20.52L228.289 27H221.413L234.661 0.215999L247.945 27H241.033L238.009 20.772L238.225 19.224L234.661 11.052Z" fill="#010851"/>
</svg>
